<mxfile host="app.diagrams.net" modified="2024-04-01T01:24:45.685Z" agent="Mozilla/5.0 (Windows NT 10.0; Win64; x64) AppleWebKit/537.36 (KHTML, like Gecko) Chrome/123.0.0.0 Safari/537.36" version="24.2.1" etag="li-INt43tmWB4XIT3pT9" type="github">
  <diagram name="Pagina-1" id="JnYFPwqsSq1JpC6ZkIEw">
    <mxGraphModel>
      <root>
        <mxCell id="0" />
        <mxCell id="1" parent="0" />
      </root>
    </mxGraphModel>
  </diagram>
</mxfile>
